<svg xmlns="http://www.w3.org/2000/svg" xmlns:xlink="http://www.w3.org/1999/xlink" width="192" height="128" viewBox="0 0 192 128">
  <defs>
<symbol id="1" viewBox="0 0 48 48">
    <g id="ic/1">
<g id="ic">
<g id="Icon">
<path id="Union" d="M24.0001 5.52826C34.4935 5.52832 43.0001 13.4678 43.0001 23.2617C43.0001 33.0554 34.4935 40.995 24.0001 40.9951C21.5784 40.9951 19.2629 40.5707 17.1329 39.7997L10.8204 42.3251C9.32799 42.9221 7.77669 41.6042 8.12512 40.0351L9.34387 34.5478C6.63023 31.4816 5.00014 27.5492 5.00012 23.2617C5.00012 13.4678 13.5067 5.52826 24.0001 5.52826Z" fill="#7161FF"/>
<path id="Union_2" d="M15.6792 21.8465C17.0295 21.8468 18.1245 22.9415 18.1245 24.2918C18.1244 25.642 17.0294 26.7369 15.6792 26.7371C14.3288 26.7371 13.234 25.6421 13.2339 24.2918C13.2339 22.9414 14.3287 21.8465 15.6792 21.8465ZM24.0015 21.8465C25.3518 21.8467 26.4468 22.9415 26.4468 24.2918C26.4466 25.642 25.3517 26.7369 24.0015 26.7371C22.651 26.7371 21.5563 25.6421 21.5562 24.2918C21.5562 22.9414 22.651 21.8465 24.0015 21.8465ZM32.3208 21.8465C33.6713 21.8465 34.7661 22.9414 34.7661 24.2918C34.766 25.6421 33.6712 26.7371 32.3208 26.7371C30.9705 26.737 29.8756 25.6421 29.8755 24.2918C29.8755 22.9414 30.9704 21.8466 32.3208 21.8465Z" fill="white"/>
</g>
</g>
</g>
  </symbol>
  <symbol id="2" viewBox="0 0 48 48">
    <g id="ic/2">
<g id="ic">
<g id="Group 1430106026">
<path id="Line 49" d="M23.9987 6.19061L32.6896 14.8815" stroke="#008341" stroke-width="4" stroke-linecap="round"/>
<path id="Line 50" d="M23.9987 6.19061L15.3732 14.8161" stroke="#008341" stroke-width="4" stroke-linecap="round"/>
</g>
<path id="Rectangle 3464252" d="M5 19.3091C5 15.9954 7.68629 13.3091 11 13.3091H37C40.3137 13.3091 43 15.9954 43 19.3091V35.8094C43 39.1231 40.3137 41.8094 37 41.8094H11C7.68629 41.8094 5 39.1231 5 35.8094V19.3091Z" fill="#38BC72"/>
<g id="Group 1430106014">
<rect id="Rectangle 3463685" x="14.5" y="21.8599" width="19" height="3.1667" rx="1.58335" fill="white"/>
<rect id="Rectangle 3463686" x="14.5" y="30.0934" width="11.4" height="3.1667" rx="1.58335" fill="white"/>
</g>
</g>
</g>
  </symbol>
  <symbol id="3" viewBox="0 0 48 48">
    <g id="ic/3" clip-path="url(#clip0_60_793)">
<g id="ic">
<path id="Rectangle 3464254" d="M7.00006 21.718H41.0001V31.9671C41.0001 33.5545 40.2507 35.0475 38.9274 35.9242C35.5226 38.1801 28.6591 42.3055 24.0001 42.3055C19.3411 42.3055 12.4775 38.1801 9.07269 35.9242C7.74944 35.0475 7.00006 33.5545 7.00006 31.9671V21.718Z" fill="#656565"/>
<path id="Vector" d="M20.6662 7.50014L5.49379 15.718C2.70049 17.2309 2.70049 21.2395 5.49379 22.7524L20.6662 30.9702C22.746 32.0967 25.254 32.0967 27.3338 30.9702L42.5062 22.7524C45.2995 21.2395 45.2995 17.2309 42.5062 15.718L27.3338 7.50014C25.254 6.37366 22.746 6.37366 20.6662 7.50014Z" fill="#414141"/>
<path id="Vector_2" d="M35.533 26.4247V36.0394" stroke="#FFCE00" stroke-width="2" stroke-linecap="round" stroke-linejoin="round"/>
<path id="Line 49" d="M24.4202 18.3721L35.5361 26.4244" stroke="#FFCE00" stroke-width="2" stroke-linecap="round"/>
<path id="Rectangle 3464260" d="M32.6498 37.2176C32.6498 35.6255 33.9405 34.3348 35.5326 34.3348C37.1247 34.3348 38.4154 35.6255 38.4154 37.2176V41.3657H32.6498V37.2176Z" fill="#FFCE00"/>
<rect id="Rectangle 3464259" x="33.5815" y="31.093" width="3.90625" height="3.90608" rx="1.5" fill="#FFA100"/>
</g>
</g>
<defs>
<clipPath id="clip0_60_793">
<rect width="48" height="48" fill="white"/>
</clipPath>
</defs>
  </symbol>
  <symbol id="4" viewBox="0 0 48 48">
    <g id="ic/4">
<g id="ic">
<path id="Vector" d="M28.304 15.4096C28.304 17.7773 30.2282 19.7015 32.5958 19.7015H39.6273C40.879 19.7015 41.8948 20.7172 41.8948 21.969V37.5845C41.8948 39.9522 39.9706 41.8764 37.6029 41.8764H10.4215C8.0538 41.8764 6.12964 39.9522 6.12964 37.5845V10.4023C6.12964 8.03462 8.0538 6.11041 10.4215 6.11041H26.0365C27.2883 6.11041 28.304 7.12617 28.304 8.37797V15.4096Z" fill="#32ABFF"/>
<path id="Vector_2" d="M33.0736 28.4656C31.3822 31.3865 28.223 33.3537 24.6092 33.3537C20.9954 33.3537 18.0597 31.5206 16.3311 28.7711" stroke="white" stroke-width="4" stroke-miterlimit="10" stroke-linecap="round"/>
<path id="Star 33" d="M35.7286 6.76489C36.0301 5.84811 37.327 5.84811 37.6285 6.76489L38.3648 9.00381C38.464 9.3055 38.7006 9.54212 39.0023 9.64134L41.2413 10.3777C42.158 10.6792 42.158 11.9761 41.2413 12.2776L39.0023 13.014C38.7007 13.1132 38.464 13.3498 38.3648 13.6515L37.6285 15.8904C37.327 16.8072 36.0301 16.8072 35.7286 15.8904L34.9923 13.6515C34.8931 13.3498 34.6564 13.1132 34.3548 13.014L32.1158 12.2776C31.1991 11.9761 31.199 10.6792 32.1158 10.3777L34.3548 9.64134C34.6564 9.54212 34.8931 9.3055 34.9923 9.00381L35.7286 6.76489Z" fill="#0061EE"/>
</g>
</g>
  </symbol>
  <symbol id="5" viewBox="0 0 48 48">
    <g id="ic/5">
<g id="ic">
<path id="Rectangle 3464252" d="M4.99988 15.7C4.99988 12.9385 7.23845 10.7 9.99988 10.7H37.9999C40.7613 10.7 42.9999 12.9385 42.9999 15.7V34.2C42.9999 36.9614 40.7613 39.2 37.9999 39.2H9.99988C7.23845 39.2 4.99988 36.9614 4.99988 34.2V15.7Z" fill="#FF7700"/>
<path id="Union" d="M16.1024 8.79993C17.8587 8.80003 19.486 9.72165 20.3895 11.2277L21.8778 13.7091C22.1461 14.1563 22.3526 14.6345 22.496 15.131H42.9999V34.1974C42.9999 36.9588 40.7613 39.1974 37.9999 39.1974H9.99988C7.23845 39.1974 4.99988 36.9588 4.99988 34.1974V12.7999C4.99988 10.5908 6.79074 8.79993 8.99988 8.79993H16.1024Z" fill="#FFAD1F"/>
<circle id="Ellipse 2114" cx="36.1998" cy="32.3976" r="2" fill="white"/>
<circle id="Ellipse 2115" cx="29.8649" cy="32.3976" r="2" fill="white"/>
</g>
</g>
  </symbol>
  </defs>
  <use href="#1" x="8" y="8" width="48" height="48" />
  <use href="#2" x="72" y="8" width="48" height="48" />
  <use href="#3" x="136" y="8" width="48" height="48" />
  <use href="#4" x="8" y="72" width="48" height="48" />
  <use href="#5" x="72" y="72" width="48" height="48" />
</svg>